<?xml version="1.0" encoding="utf-8"?>
<!-- Generator: Adobe Illustrator 28.0.0, SVG Export Plug-In . SVG Version: 6.00 Build 0)  -->
<svg version="1.1" id="Layer_1" xmlns="http://www.w3.org/2000/svg" xmlns:xlink="http://www.w3.org/1999/xlink" x="0px" y="0px"
	 viewBox="0 0 1090 396" style="enable-background:new 0 0 1090 396;" xml:space="preserve">
<style type="text/css">
	.st0{fill:#0E60AA;}
	.st1{fill:#11254A;}
</style>
<g>
	<g>
		<path class="st0" d="M72.55,278.07c-0.69-0.83-0.9-1.97-0.54-2.99c6.15-17.22,14.7-32.77,26.64-46.29
			c15.37-17.41,34.07-29.86,56.83-35.93c1.07-0.29,2.11-0.67,3.15-1.06c1.88-0.7,3.26-0.27,4.81,1.16
			c8.02,7.4,16.17,14.66,24.29,21.97c0,0,0.01,0.01,0.01,0.01c0.82,0.73,2.11,0.49,2.68-0.44c0.19-0.3,0.37-0.61,0.53-0.91
			c5.26-10.11,10.54-20.21,15.74-30.35c0.7-1.36,1.87-2.4,3.29-2.95c26.04-10.16,48.22-25.97,67.46-46.12
			c13.94-14.59,25.67-30.78,35.53-48.35c0.47-0.84,0.84-1.72,1.44-2.95c-5.75-4.13-11.36-8.17-17.41-12.52
			c20.46-9,40.46-17.81,61.01-26.85c-0.53,22.94-1.05,45.37-1.58,68.49c-6.11-4.15-11.67-7.93-17.4-11.83
			c-0.78,1.15-1.36,1.93-1.85,2.75c-8.5,14.06-17.55,27.75-27.6,40.76c-20.25,26.2-43.91,48.77-71.46,67.21
			c-1.79,1.2-2.41,2.49-2.4,4.57c0.07,16.82,0.02,33.63,0.08,50.45c0.01,2.32-0.37,4.49-1.34,6.57
			c-14.99,32.25-38.32,56.1-71.26,70.02c-10.53,4.45-21.64,6.81-33.16,7.44c-25.22,1.37-47.46-5.97-66.91-21.96
			c-5.42-4.46-10.14-9.63-14.39-15.17c-9.41-12.24-16.55-25.76-22.13-40.14c-4.02-10.37-7.11-21.01-9.1-31.96
			c-2.04-11.23-3.18-22.54-2.99-33.99c0.29-17.39,2.81-34.43,7.92-51.05c4.18-13.59,10.18-26.37,17.54-38.52
			c0.15-0.24,0.35-0.45,0.98-0.49c-0.3,0.78-0.57,1.58-0.89,2.35c-4.17,10.11-7.33,20.54-9.41,31.25
			c-2.34,12.08-3.65,24.29-3.14,36.62c1.33,31.76,10.78,60.96,28.13,87.56c6.74,10.33,14.67,19.74,24.27,27.59
			c6.01,4.91,12.78,8.46,20.43,10.09c20.51,4.38,38.93-7.6,42.85-28.56c0.16-0.86,0.26-2.29,0.27-3.16
			c0.01-12.78,0.02-25.57,0.01-38.35c0-0.95-0.1-1.9-0.17-3.24c-13.39,3.99-24.85,10.56-34.85,19.69
			c-9.36,8.55-16.46,18.78-22.2,30.35c-0.61,1.24-2.25,1.54-3.28,0.62C79.06,285.92,75.82,282,72.55,278.07z"/>
		<path class="st0" d="M99.9,359.13c3.64,0.56,7.27,1.15,10.91,1.68c6.92,1.01,13.84,1.16,20.85,0.67c9.57-0.67,18.9-2.32,27.92-5.5
			c5.45-1.92,10.72-4.34,16.02-6.67c1.57-0.69,3.09-1.08,4.81-1.08c28.75,0.03,54.69-8.49,77.76-25.64
			c21.51-15.99,37.25-36.46,47.25-61.33c4.64-11.54,7.62-23.52,9.05-35.86c1.08-9.29,1.08-18.61,0.31-27.95
			c-0.88-10.72-3.14-21.14-6.08-31.44c-0.44-1.54-0.45-2.72,0.67-4.04c7.67-8.98,14.84-18.34,21.48-28.1
			c0.27-0.39,0.6-0.75,1.06-1.32c0.47,0.85,0.89,1.48,1.19,2.17c6.26,14.39,10.55,29.34,13.1,44.82c2.03,12.36,2.83,24.81,2.19,37.3
			c-1.56,30.55-9.73,59.17-25.96,85.29c-17.98,28.93-42.46,50.56-73.31,64.95c-12.79,5.96-26.22,9.88-40.14,12.23
			c-10.01,1.69-20.07,2.63-30.21,2.24c-27.29-1.04-53.2-7.26-77.06-20.97c-0.65-0.37-1.29-0.77-1.93-1.16
			C99.81,359.31,99.85,359.22,99.9,359.13z"/>
		<path class="st0" d="M110.98,39.59c5.5-2.06,11-4.14,16.51-6.17c16.12-5.93,32.26-11.82,48.37-17.78
			c1.93-0.71,3.69-0.88,5.69-0.13c21.35,7.93,42.73,15.78,64.1,23.66c0.36,0.13,0.7,0.33,1.42,0.68c-4.05,1.49-7.77,2.87-11.49,4.24
			c-18.25,6.7-36.5,13.37-54.73,20.12c-1.61,0.6-2.99,0.5-4.54-0.08c-15.18-5.64-30.38-11.24-45.57-16.84
			c-1.26-0.46-2.54-0.86-3.95-1.34c-0.15,0.84-0.32,1.31-0.32,1.78c0,5.8,0.03,11.6,0.03,17.4c0,1.03,0.3,1.8,1.06,2.6
			c2.65,2.78,2.88,5.69,0.64,8.71c-0.81,1.09-0.88,2.02-0.62,3.26c0.82,4.04,1.53,8.1,2.25,12.16c0.22,1.24,0.33,2.5,0.51,3.96
			c-4.32,0-8.4,0-12.91,0c0.51-2.72,0.97-5.27,1.46-7.82c0.54-2.79,1.02-5.6,1.68-8.36c0.3-1.28,0.08-2.2-0.69-3.26
			c-2.13-2.96-2.02-5.42,0.38-8.26c0.82-0.97,1.21-1.94,1.21-3.18c-0.01-6.19,0.04-12.39,0.02-18.58c-0.01-2.34-0.17-2.5-2.49-3.36
			c-2.66-0.98-5.34-1.91-8.01-2.87C110.99,39.94,110.98,39.76,110.98,39.59z"/>
		<path class="st0" d="M145.34,145.1c0.18-15.4,10.41-28.73,24.75-32.72c18.06-5.02,36.25,5.94,40.83,24.3
			c3.61,14.5-1.89,28.79-13.46,36.93c-5.27,3.7-11.14,5.47-17.64,5.72c-16.88,0.65-30.7-11.8-33.67-27.22
			C145.7,149.8,145.6,147.43,145.34,145.1z"/>
		<path class="st0" d="M297.69,89.28c-5.13,8.16-10.67,15.88-16.76,23.43c-0.87,1.08-2.53,1.2-3.49,0.2
			c-0.01-0.01-0.01-0.01-0.02-0.02c-13.2-13.8-28.51-24.6-46.05-32.2c-1.93-0.84-2.28-1.8-2.31-4.69C229,70,229,66,229.02,60.85
			c0.01-3.3,0.51-3.66,4.04-4.99C238,54,239,54,242.77,52.24c2.35-1.09,3.92-1.34,5.85-0.48c8.45,3.79,16.42,8.44,24.05,13.66
			c8.61,5.9,16.64,12.52,24.04,19.89c0.22,0.22,0.43,0.44,0.65,0.67C298.2,86.88,298.34,88.24,297.69,89.28z"/>
		<path class="st0" d="M218.63,57.85c0.09,0.74,0.2,1.21,0.2,1.69c0.03,5.4-0.04,10.81,0.1,16.2c0.11,4.37-2.01,7.21-5.68,9.18
			c-6.73,3.61-13.95,5.77-21.46,6.86c-4.36,0.63-8.79,1.17-13.18,1.09c-6.56-0.13-13.09-0.86-19.51-2.49
			c-4.88-1.23-9.62-2.78-14.07-5.1c-1.62-0.85-3.24-1.96-4.42-3.32c-0.96-1.1-1.75-2.75-1.8-4.18c-0.21-6.18-0.12-12.37-0.13-18.56
			c0-0.28,0.16-0.55,0.36-1.21c0.9,0.24,1.82,0.41,2.67,0.73c10.68,3.91,21.4,7.74,32,11.85c3.49,1.35,6.51,1.51,10.09,0.09
			c10.75-4.27,21.66-8.14,32.51-12.15C217.01,58.27,217.74,58.11,218.63,57.85z"/>
	</g>
	<g>
		<path class="st0" d="M98.1,60.75c-12.7,8.43-23.07,19.29-31.78,31.7c-17.4,24.78-26.38,52.47-27.87,82.61
			c-0.57,11.52,0.54,22.97,2.5,34.32c2.08,12.05,5.9,23.6,10.34,34.95c0.82,2.09,1.83,4.1,2.75,6.15
			c-2.52-10.68-4.44-21.35-5.11-32.28c-0.51-8.28-0.23-16.51,0.45-24.74c0.76-9.23,2.84-18.24,5.57-27.06
			c8.45-27.23,23.59-49.73,45.79-67.17c2.96-2.33,4.87-5.74,5.22-9.49l3.24-34.34c0.04-0.48-0.46-0.8-0.88-0.57
			C104.88,56.76,101.37,58.58,98.1,60.75z"/>
	</g>
</g>
<g>
	<path class="st0" d="M402.78,160.32v17.42h23.39v11.05h-23.39v18.41h26.37v11.35h-40.3v-69.56h40.3v11.35H402.78z"/>
	<path class="st0" d="M441.54,175.95c2.22-4.31,5.26-7.63,9.11-9.95c3.85-2.32,8.13-3.48,12.84-3.48c3.58,0,7,0.78,10.25,2.34
		c3.25,1.56,5.84,3.63,7.76,6.22V144.9h14.13v73.64H481.5v-8.16c-1.73,2.72-4.15,4.91-7.26,6.57c-3.12,1.66-6.73,2.49-10.85,2.49
		c-4.64,0-8.89-1.19-12.74-3.58c-3.85-2.39-6.88-5.75-9.11-10.1c-2.22-4.34-3.33-9.34-3.33-14.98
		C438.21,185.2,439.32,180.26,441.54,175.95z M479.61,182.26c-1.33-2.42-3.12-4.28-5.37-5.57c-2.26-1.29-4.68-1.94-7.26-1.94
		c-2.59,0-4.98,0.63-7.17,1.89c-2.19,1.26-3.97,3.1-5.32,5.52c-1.36,2.42-2.04,5.29-2.04,8.61c0,3.32,0.68,6.22,2.04,8.71
		c1.36,2.49,3.15,4.4,5.37,5.72c2.22,1.33,4.59,1.99,7.12,1.99c2.59,0,5.01-0.65,7.26-1.94c2.25-1.29,4.05-3.15,5.37-5.57
		c1.33-2.42,1.99-5.32,1.99-8.71S480.93,184.69,479.61,182.26z"/>
	<path class="st0" d="M561.31,163.41v55.13h-14.03v-6.97c-1.79,2.39-4.13,4.26-7.02,5.62c-2.89,1.36-6.02,2.04-9.4,2.04
		c-4.31,0-8.13-0.91-11.44-2.74c-3.32-1.82-5.92-4.51-7.81-8.06c-1.89-3.55-2.84-7.78-2.84-12.69v-32.34h13.93v30.35
		c0,4.38,1.09,7.75,3.28,10.1c2.19,2.36,5.17,3.53,8.96,3.53c3.85,0,6.87-1.18,9.06-3.53c2.19-2.35,3.28-5.72,3.28-10.1v-30.35
		H561.31z"/>
	<path class="st0" d="M574.95,176c2.32-4.28,5.54-7.6,9.65-9.95c4.11-2.35,8.82-3.53,14.13-3.53c6.83,0,12.49,1.71,16.97,5.12
		c4.48,3.42,7.48,8.21,9.01,14.38h-15.03c-0.8-2.39-2.14-4.26-4.03-5.62c-1.89-1.36-4.23-2.04-7.02-2.04
		c-3.98,0-7.13,1.44-9.45,4.33c-2.32,2.89-3.48,6.98-3.48,12.29c0,5.24,1.16,9.3,3.48,12.19c2.32,2.89,5.47,4.33,9.45,4.33
		c5.64,0,9.32-2.52,11.05-7.56h15.03c-1.53,5.97-4.54,10.72-9.06,14.23c-4.51,3.52-10.15,5.27-16.92,5.27
		c-5.31,0-10.02-1.18-14.13-3.53c-4.11-2.35-7.33-5.67-9.65-9.95c-2.32-4.28-3.48-9.27-3.48-14.98
		C571.46,185.27,572.62,180.27,574.95,176z"/>
	<path class="st0" d="M634.71,175.95c2.22-4.31,5.24-7.63,9.06-9.95c3.81-2.32,8.08-3.48,12.79-3.48c4.11,0,7.71,0.83,10.8,2.49
		c3.08,1.66,5.56,3.75,7.41,6.27v-7.86h14.03v55.13h-14.03v-8.06c-1.79,2.59-4.26,4.73-7.41,6.42c-3.15,1.69-6.78,2.54-10.9,2.54
		c-4.65,0-8.87-1.19-12.69-3.58c-3.82-2.39-6.83-5.75-9.06-10.1c-2.22-4.34-3.33-9.34-3.33-14.98
		C631.37,185.2,632.48,180.26,634.71,175.95z M672.77,182.26c-1.33-2.42-3.12-4.28-5.37-5.57c-2.26-1.29-4.68-1.94-7.26-1.94
		c-2.59,0-4.98,0.63-7.17,1.89c-2.19,1.26-3.97,3.1-5.32,5.52c-1.36,2.42-2.04,5.29-2.04,8.61c0,3.32,0.68,6.22,2.04,8.71
		c1.36,2.49,3.15,4.4,5.37,5.72c2.22,1.33,4.59,1.99,7.12,1.99c2.59,0,5.01-0.65,7.26-1.94c2.25-1.29,4.05-3.15,5.37-5.57
		c1.33-2.42,1.99-5.32,1.99-8.71S674.1,184.69,672.77,182.26z"/>
	<path class="st0" d="M718.65,174.85v26.67c0,1.86,0.45,3.2,1.34,4.03c0.9,0.83,2.4,1.24,4.53,1.24h6.47v11.74h-8.76
		c-11.74,0-17.62-5.71-17.62-17.12v-26.57h-6.57v-11.44h6.57v-13.63h14.03v13.63h12.34v11.44H718.65z"/>
	<path class="st0" d="M751.19,215.9c-4.25-2.35-7.58-5.69-10-10c-2.42-4.31-3.63-9.29-3.63-14.93c0-5.64,1.24-10.61,3.73-14.93
		c2.49-4.31,5.89-7.65,10.2-10c4.31-2.35,9.12-3.53,14.43-3.53c5.31,0,10.12,1.18,14.43,3.53c4.31,2.36,7.71,5.69,10.2,10
		c2.49,4.31,3.73,9.29,3.73,14.93c0,5.64-1.28,10.62-3.83,14.93c-2.55,4.31-6,7.65-10.35,10c-4.35,2.36-9.21,3.53-14.58,3.53
		C760.21,219.43,755.44,218.26,751.19,215.9z M772.64,205.45c2.22-1.23,4-3.07,5.32-5.52c1.33-2.45,1.99-5.44,1.99-8.96
		c0-5.24-1.38-9.27-4.13-12.09c-2.75-2.82-6.12-4.23-10.1-4.23s-7.31,1.41-10,4.23c-2.69,2.82-4.03,6.85-4.03,12.09
		c0,5.24,1.31,9.27,3.93,12.09c2.62,2.82,5.92,4.23,9.9,4.23C768.04,207.29,770.41,206.68,772.64,205.45z"/>
	<path class="st0" d="M825.48,165.1c2.89-1.66,6.19-2.49,9.9-2.49v14.63h-3.68c-4.38,0-7.68,1.03-9.9,3.08
		c-2.22,2.06-3.33,5.64-3.33,10.75v27.47h-13.93v-55.13h13.93v8.56C820.26,169.05,822.59,166.76,825.48,165.1z"/>
	<path class="st0" d="M853.69,217c-3.58-1.62-6.42-3.83-8.51-6.62c-2.09-2.79-3.23-5.87-3.43-9.25h14.03
		c0.26,2.12,1.31,3.88,3.13,5.27c1.82,1.39,4.1,2.09,6.82,2.09c2.65,0,4.73-0.53,6.22-1.59c1.49-1.06,2.24-2.42,2.24-4.08
		c0-1.79-0.91-3.13-2.74-4.03c-1.83-0.9-4.73-1.87-8.71-2.94c-4.12-1-7.48-2.02-10.1-3.08c-2.62-1.06-4.88-2.69-6.77-4.88
		c-1.89-2.19-2.84-5.14-2.84-8.86c0-3.05,0.88-5.84,2.64-8.36c1.76-2.52,4.28-4.51,7.56-5.97c3.28-1.46,7.15-2.19,11.59-2.19
		c6.57,0,11.81,1.64,15.72,4.93c3.91,3.28,6.07,7.71,6.47,13.29H873.7c-0.2-2.19-1.11-3.93-2.74-5.22c-1.63-1.29-3.8-1.94-6.52-1.94
		c-2.52,0-4.46,0.46-5.82,1.39c-1.36,0.93-2.04,2.22-2.04,3.88c0,1.86,0.93,3.27,2.79,4.23c1.86,0.96,4.74,1.94,8.66,2.94
		c3.98,1,7.26,2.02,9.85,3.09c2.59,1.06,4.83,2.7,6.72,4.93c1.89,2.22,2.87,5.16,2.94,8.81c0,3.18-0.88,6.04-2.64,8.56
		c-1.76,2.52-4.28,4.5-7.56,5.92c-3.28,1.43-7.12,2.14-11.49,2.14C861.32,219.43,857.28,218.62,853.69,217z"/>
	<path class="st0" d="M904.6,149.72c4.34-3.62,10.07-5.42,17.17-5.42c4.84,0,8.99,0.85,12.44,2.54c3.45,1.69,6.05,3.98,7.81,6.87
		c1.76,2.89,2.64,6.15,2.64,9.8c0,4.18-1.08,7.71-3.23,10.6c-2.16,2.89-4.73,4.83-7.71,5.82v0.4c3.85,1.19,6.85,3.32,9.01,6.37
		c2.16,3.05,3.23,6.97,3.23,11.74c0,3.98-0.91,7.53-2.74,10.65c-1.83,3.12-4.51,5.56-8.06,7.31c-3.55,1.76-7.81,2.64-12.79,2.64
		c-7.5,0-13.6-1.89-18.31-5.67c-4.71-3.78-7.2-9.35-7.46-16.72h13.53c0.13,3.25,1.24,5.86,3.33,7.81c2.09,1.96,4.96,2.94,8.61,2.94
		c3.38,0,5.99-0.95,7.81-2.84c1.82-1.89,2.74-4.33,2.74-7.31c0-3.98-1.26-6.83-3.78-8.56c-2.52-1.72-6.44-2.59-11.74-2.59h-2.89
		v-11.44h2.89c9.42,0,14.13-3.15,14.13-9.45c0-2.85-0.85-5.08-2.54-6.67c-1.69-1.59-4.13-2.39-7.32-2.39
		c-3.12,0-5.52,0.85-7.21,2.54c-1.69,1.69-2.67,3.83-2.94,6.42h-13.63C897.91,158.46,900.25,153.34,904.6,149.72z"/>
	<path class="st0" d="M991.18,157.83c-1.63-1.39-3.97-2.09-7.02-2.09c-4.58,0-7.95,1.84-10.1,5.52c-2.16,3.68-3.27,9.67-3.33,17.96
		c1.59-2.65,3.91-4.73,6.97-6.22c3.05-1.49,6.37-2.24,9.95-2.24c4.31,0,8.13,0.93,11.44,2.79c3.32,1.86,5.9,4.56,7.76,8.11
		c1.86,3.55,2.79,7.81,2.79,12.79c0,4.71-0.95,8.91-2.84,12.59s-4.66,6.55-8.31,8.61c-3.65,2.06-8,3.09-13.04,3.09
		c-6.9,0-12.32-1.53-16.27-4.58c-3.95-3.05-6.7-7.31-8.26-12.79c-1.56-5.47-2.34-12.22-2.34-20.25c0-12.14,2.09-21.31,6.27-27.52
		c4.18-6.2,10.78-9.3,19.8-9.3c6.97,0,12.37,1.89,16.22,5.67c3.85,3.78,6.07,8.49,6.67,14.13h-12.94
		C993.95,161.32,992.8,159.23,991.18,157.83z M975.6,185.3c-2.39,2.06-3.58,5.04-3.58,8.96c0,3.92,1.11,7,3.33,9.25
		c2.22,2.26,5.36,3.38,9.4,3.38c3.58,0,6.42-1.09,8.51-3.28s3.13-5.14,3.13-8.86c0-3.85-1.01-6.9-3.04-9.16
		c-2.02-2.25-4.99-3.38-8.91-3.38C980.94,182.22,977.99,183.24,975.6,185.3z"/>
	<path class="st0" d="M1026.91,154.35c4.15-6.5,11.03-9.75,20.65-9.75c9.62,0,16.5,3.25,20.65,9.75c4.15,6.5,6.22,15.49,6.22,26.97
		c0,11.54-2.07,20.6-6.22,27.17c-4.15,6.57-11.03,9.85-20.65,9.85c-9.62,0-16.5-3.28-20.65-9.85c-4.15-6.57-6.22-15.62-6.22-27.17
		C1020.69,169.84,1022.76,160.85,1026.91,154.35z M1059.75,168.93c-0.63-3.35-1.89-6.09-3.78-8.21c-1.89-2.12-4.69-3.18-8.41-3.18
		c-3.72,0-6.52,1.06-8.41,3.18c-1.89,2.12-3.15,4.86-3.78,8.21c-0.63,3.35-0.95,7.48-0.95,12.39c0,5.04,0.3,9.27,0.9,12.69
		c0.6,3.42,1.86,6.17,3.78,8.26c1.92,2.09,4.74,3.13,8.46,3.13c3.71,0,6.53-1.04,8.46-3.13c1.92-2.09,3.18-4.84,3.78-8.26
		c0.6-3.42,0.9-7.65,0.9-12.69C1060.69,176.41,1060.38,172.28,1059.75,168.93z"/>
</g>
<g>
	<path class="st1" d="M397.48,250.24c1.8-1.03,3.85-1.55,6.15-1.55c2.47,0,4.68,0.58,6.65,1.75c1.97,1.17,3.52,2.81,4.65,4.93
		c1.13,2.12,1.7,4.57,1.7,7.38c0,2.77-0.57,5.23-1.7,7.4c-1.13,2.17-2.69,3.85-4.68,5.05c-1.98,1.2-4.19,1.8-6.62,1.8
		c-2.37,0-4.44-0.52-6.23-1.55c-1.78-1.03-3.12-2.35-4.02-3.95v5.05h-4.55v-37h4.55v14.7C394.31,252.61,395.68,251.27,397.48,250.24
		z M410.73,257.34c-0.83-1.53-1.96-2.7-3.38-3.5c-1.42-0.8-2.98-1.2-4.67-1.2c-1.67,0-3.21,0.41-4.62,1.23
		c-1.42,0.82-2.55,2-3.4,3.55c-0.85,1.55-1.27,3.34-1.27,5.38c0,2.07,0.43,3.88,1.27,5.42c0.85,1.55,1.98,2.73,3.4,3.55
		c1.42,0.82,2.96,1.23,4.62,1.23c1.7,0,3.26-0.41,4.67-1.23c1.42-0.82,2.54-2,3.38-3.55c0.83-1.55,1.25-3.38,1.25-5.47
		C411.98,260.67,411.56,258.87,410.73,257.34z"/>
	<path class="st1" d="M446.23,249.14l-16.5,40.3h-4.7l5.4-13.2l-11.05-27.1h5.05l8.6,22.2l8.5-22.2H446.23z"/>
	<path class="st1" d="M488.43,249.14v27.4h-4.55v-4.05c-0.87,1.4-2.08,2.49-3.62,3.27c-1.55,0.78-3.26,1.17-5.12,1.17
		c-2.13,0-4.05-0.44-5.75-1.32c-1.7-0.88-3.04-2.21-4.02-3.98c-0.98-1.77-1.48-3.92-1.48-6.45v-16.05h4.5v15.45
		c0,2.7,0.68,4.78,2.05,6.23c1.37,1.45,3.23,2.18,5.6,2.18c2.43,0,4.35-0.75,5.75-2.25s2.1-3.68,2.1-6.55v-15.05H488.43z"/>
	<path class="st1" d="M504.71,250.26c1.78-1.05,3.86-1.58,6.23-1.58c2.43,0,4.64,0.58,6.62,1.75c1.98,1.17,3.54,2.81,4.68,4.93
		c1.13,2.12,1.7,4.57,1.7,7.38c0,2.77-0.57,5.23-1.7,7.4c-1.13,2.17-2.69,3.85-4.68,5.05c-1.98,1.2-4.19,1.8-6.62,1.8
		c-2.33,0-4.39-0.53-6.17-1.58c-1.78-1.05-3.14-2.36-4.08-3.92v18.05h-4.55v-40.4h4.55v5.05
		C501.58,252.62,502.92,251.31,504.71,250.26z M518.03,257.34c-0.83-1.53-1.96-2.7-3.38-3.5c-1.42-0.8-2.98-1.2-4.67-1.2
		c-1.67,0-3.21,0.41-4.62,1.23c-1.42,0.82-2.55,2-3.4,3.55c-0.85,1.55-1.27,3.34-1.27,5.38c0,2.07,0.43,3.88,1.27,5.42
		c0.85,1.55,1.98,2.73,3.4,3.55c1.42,0.82,2.96,1.23,4.62,1.23c1.7,0,3.26-0.41,4.67-1.23c1.42-0.82,2.54-2,3.38-3.55
		c0.83-1.55,1.25-3.38,1.25-5.47C519.28,260.67,518.86,258.87,518.03,257.34z"/>
	<path class="st1" d="M534.48,245.39v11.65h12.7v3.75h-12.7v12h14.2v3.75h-18.75v-34.9h18.75v3.75H534.48z"/>
	<path class="st1" d="M555.58,255.36c1.13-2.12,2.69-3.76,4.67-4.93c1.98-1.17,4.21-1.75,6.68-1.75c2.13,0,4.12,0.49,5.95,1.48
		c1.83,0.98,3.23,2.27,4.2,3.88v-14.5h4.6v37h-4.6v-5.15c-0.9,1.63-2.23,2.98-4,4.02c-1.77,1.05-3.83,1.58-6.2,1.58
		c-2.43,0-4.64-0.6-6.62-1.8c-1.98-1.2-3.54-2.88-4.67-5.05c-1.13-2.17-1.7-4.63-1.7-7.4C553.88,259.94,554.45,257.48,555.58,255.36
		z M575.83,257.39c-0.83-1.53-1.96-2.71-3.38-3.52c-1.42-0.82-2.98-1.23-4.68-1.23c-1.7,0-3.25,0.4-4.65,1.2
		c-1.4,0.8-2.52,1.97-3.35,3.5c-0.83,1.53-1.25,3.33-1.25,5.4c0,2.1,0.42,3.92,1.25,5.47c0.83,1.55,1.95,2.73,3.35,3.55
		c1.4,0.82,2.95,1.23,4.65,1.23c1.7,0,3.26-0.41,4.68-1.23c1.42-0.82,2.54-2,3.38-3.55c0.83-1.55,1.25-3.36,1.25-5.42
		C577.08,260.72,576.66,258.92,575.83,257.39z"/>
	<path class="st1" d="M613.68,249.14v27.4h-4.55v-4.05c-0.87,1.4-2.08,2.49-3.62,3.27c-1.55,0.78-3.26,1.17-5.12,1.17
		c-2.13,0-4.05-0.44-5.75-1.32c-1.7-0.88-3.04-2.21-4.02-3.98c-0.98-1.77-1.48-3.92-1.48-6.45v-16.05h4.5v15.45
		c0,2.7,0.68,4.78,2.05,6.23c1.37,1.45,3.23,2.18,5.6,2.18c2.43,0,4.35-0.75,5.75-2.25s2.1-3.68,2.1-6.55v-15.05H613.68z"/>
	<path class="st1" d="M621.38,255.36c1.13-2.12,2.71-3.76,4.73-4.93c2.02-1.17,4.32-1.75,6.92-1.75c3.37,0,6.14,0.82,8.33,2.45
		c2.18,1.63,3.62,3.9,4.32,6.8h-4.9c-0.47-1.67-1.38-2.98-2.73-3.95s-3.02-1.45-5.02-1.45c-2.6,0-4.7,0.89-6.3,2.67
		c-1.6,1.78-2.4,4.31-2.4,7.58c0,3.3,0.8,5.85,2.4,7.65c1.6,1.8,3.7,2.7,6.3,2.7c2,0,3.67-0.47,5-1.4c1.33-0.93,2.25-2.27,2.75-4
		h4.9c-0.73,2.8-2.2,5.04-4.4,6.72c-2.2,1.68-4.95,2.53-8.25,2.53c-2.6,0-4.91-0.58-6.92-1.75c-2.02-1.17-3.59-2.82-4.73-4.95
		c-1.13-2.13-1.7-4.63-1.7-7.5C619.68,259.96,620.25,257.48,621.38,255.36z"/>
	<path class="st1" d="M651.73,255.36c1.13-2.12,2.69-3.76,4.67-4.93c1.98-1.17,4.19-1.75,6.62-1.75c2.4,0,4.48,0.52,6.25,1.55
		c1.77,1.03,3.08,2.33,3.95,3.9v-5h4.6v27.4h-4.6v-5.1c-0.9,1.6-2.24,2.93-4.02,3.98c-1.78,1.05-3.86,1.58-6.23,1.58
		c-2.43,0-4.63-0.6-6.6-1.8c-1.97-1.2-3.52-2.88-4.65-5.05c-1.13-2.17-1.7-4.63-1.7-7.4C650.03,259.94,650.6,257.48,651.73,255.36z
		 M671.98,257.39c-0.83-1.53-1.96-2.71-3.38-3.52c-1.42-0.82-2.98-1.23-4.68-1.23c-1.7,0-3.25,0.4-4.65,1.2
		c-1.4,0.8-2.52,1.97-3.35,3.5c-0.83,1.53-1.25,3.33-1.25,5.4c0,2.1,0.42,3.92,1.25,5.47c0.83,1.55,1.95,2.73,3.35,3.55
		c1.4,0.82,2.95,1.23,4.65,1.23c1.7,0,3.26-0.41,4.68-1.23c1.42-0.82,2.54-2,3.38-3.55c0.83-1.55,1.25-3.36,1.25-5.42
		C673.23,260.72,672.81,258.92,671.98,257.39z"/>
	<path class="st1" d="M691.08,252.89v16.15c0,1.33,0.28,2.27,0.85,2.83c0.57,0.55,1.55,0.82,2.95,0.82h3.35v3.85h-4.1
		c-2.53,0-4.43-0.58-5.7-1.75c-1.27-1.17-1.9-3.08-1.9-5.75v-16.15h-3.55v-3.75h3.55v-6.9h4.55v6.9h7.15v3.75H691.08z"/>
	<path class="st1" d="M708.71,275.24c-2.08-1.17-3.72-2.83-4.9-4.98c-1.18-2.15-1.77-4.64-1.77-7.48c0-2.8,0.61-5.27,1.82-7.42
		c1.22-2.15,2.88-3.8,4.98-4.95c2.1-1.15,4.45-1.73,7.05-1.73s4.95,0.58,7.05,1.73c2.1,1.15,3.76,2.79,4.98,4.92
		c1.22,2.13,1.82,4.62,1.82,7.45c0,2.83-0.62,5.33-1.88,7.48s-2.94,3.81-5.07,4.98c-2.13,1.17-4.5,1.75-7.1,1.75
		C713.11,276.99,710.79,276.41,708.71,275.24z M720.28,271.84c1.43-0.77,2.59-1.92,3.47-3.45c0.88-1.53,1.33-3.4,1.33-5.6
		s-0.43-4.07-1.3-5.6c-0.87-1.53-2-2.67-3.4-3.42s-2.92-1.12-4.55-1.12c-1.67,0-3.19,0.38-4.58,1.12c-1.38,0.75-2.49,1.89-3.33,3.42
		c-0.83,1.53-1.25,3.4-1.25,5.6c0,2.23,0.41,4.12,1.23,5.65c0.82,1.53,1.91,2.68,3.27,3.43c1.37,0.75,2.87,1.12,4.5,1.12
		C717.31,272.99,718.85,272.61,720.28,271.84z"/>
	<path class="st1" d="M743.71,249.94c1.48-0.87,3.29-1.3,5.42-1.3v4.7h-1.2c-5.1,0-7.65,2.77-7.65,8.3v14.9h-4.55v-27.4h4.55v4.45
		C741.08,252.02,742.22,250.81,743.71,249.94z"/>
	<path class="st1" d="M758.43,275.91c-1.67-0.72-2.98-1.72-3.95-3c-0.97-1.28-1.5-2.76-1.6-4.42h4.7c0.13,1.37,0.78,2.48,1.92,3.35
		c1.15,0.87,2.66,1.3,4.53,1.3c1.73,0,3.1-0.38,4.1-1.15c1-0.77,1.5-1.73,1.5-2.9c0-1.2-0.53-2.09-1.6-2.67
		c-1.07-0.58-2.72-1.16-4.95-1.73c-2.03-0.53-3.69-1.07-4.97-1.62c-1.28-0.55-2.38-1.37-3.3-2.45c-0.92-1.08-1.38-2.51-1.38-4.28
		c0-1.4,0.42-2.68,1.25-3.85c0.83-1.17,2.02-2.09,3.55-2.78c1.53-0.68,3.28-1.02,5.25-1.02c3.03,0,5.48,0.77,7.35,2.3
		c1.87,1.53,2.87,3.63,3,6.3h-4.55c-0.1-1.43-0.67-2.58-1.72-3.45c-1.05-0.87-2.46-1.3-4.23-1.3c-1.63,0-2.93,0.35-3.9,1.05
		c-0.97,0.7-1.45,1.62-1.45,2.75c0,0.9,0.29,1.64,0.88,2.23c0.58,0.58,1.32,1.05,2.2,1.4c0.88,0.35,2.11,0.74,3.67,1.18
		c1.97,0.53,3.57,1.06,4.8,1.57c1.23,0.52,2.29,1.29,3.17,2.33c0.88,1.03,1.34,2.38,1.38,4.05c0,1.5-0.42,2.85-1.25,4.05
		c-0.83,1.2-2.01,2.14-3.52,2.82c-1.52,0.68-3.26,1.03-5.23,1.03C761.98,276.99,760.1,276.63,758.43,275.91z"/>
</g>
</svg>
