<svg width="344" height="367" viewBox="0 0 344 367" fill="none" xmlns="http://www.w3.org/2000/svg">
<path d="M58.0505 263.048C57.3605 262.218 57.1505 261.078 57.5105 260.058C63.6605 242.838 72.2105 227.288 84.1505 213.768C99.5205 196.358 118.221 183.908 140.981 177.838C142.051 177.548 143.091 177.168 144.131 176.778C146.011 176.078 147.391 176.508 148.941 177.938C156.961 185.338 165.111 192.598 173.231 199.908L173.241 199.918C174.061 200.648 175.351 200.408 175.921 199.478C176.111 199.178 176.291 198.868 176.451 198.568C181.711 188.458 186.991 178.358 192.191 168.218C192.891 166.858 194.061 165.818 195.481 165.268C221.521 155.108 243.701 139.298 262.941 119.148C276.881 104.558 288.611 88.368 298.471 70.798C298.941 69.958 299.311 69.078 299.911 67.848C294.161 63.718 288.551 59.678 282.501 55.328C302.961 46.328 322.961 37.518 343.511 28.478C342.981 51.418 342.461 73.848 341.931 96.968C335.821 92.818 330.261 89.038 324.531 85.138C323.751 86.288 323.171 87.068 322.681 87.888C314.181 101.948 305.131 115.638 295.081 128.648C274.831 154.848 251.171 177.418 223.621 195.858C221.831 197.058 221.211 198.348 221.221 200.428C221.291 217.248 221.241 234.058 221.301 250.878C221.311 253.198 220.931 255.368 219.961 257.448C204.971 289.698 181.641 313.548 148.701 327.468C138.171 331.918 127.061 334.278 115.541 334.908C90.3205 336.278 68.0805 328.938 48.6305 312.948C43.2105 308.488 38.4905 303.318 34.2405 297.778C24.8305 285.538 17.6905 272.018 12.1105 257.638C8.09052 247.268 5.00052 236.628 3.01052 225.678C0.970516 214.448 -0.169483 203.138 0.0205166 191.688C0.310517 174.298 2.83052 157.258 7.94052 140.638C12.1205 127.048 18.1205 114.268 25.4805 102.118C25.6305 101.878 25.8305 101.668 26.4605 101.628C26.1605 102.408 25.8905 103.208 25.5705 103.978C21.4005 114.088 18.2405 124.518 16.1605 135.228C13.8205 147.308 12.5105 159.518 13.0205 171.848C14.3505 203.608 23.8005 232.808 41.1505 259.408C47.8905 269.738 55.8205 279.148 65.4205 286.998C71.4305 291.908 78.2005 295.458 85.8505 297.088C106.361 301.468 124.781 289.488 128.701 268.528C128.861 267.668 128.961 266.238 128.971 265.368C128.981 252.588 128.991 239.798 128.981 227.018C128.981 226.068 128.881 225.118 128.811 223.778C115.421 227.768 103.961 234.338 93.9605 243.468C84.6005 252.018 77.5005 262.248 71.7605 273.818C71.1505 275.058 69.5105 275.358 68.4805 274.438C64.5605 270.898 61.3205 266.978 58.0505 263.048Z" fill="#0E60AA"/>
<path d="M85.4005 344.108C89.0405 344.668 92.6705 345.258 96.3105 345.788C103.231 346.798 110.151 346.948 117.161 346.458C126.731 345.788 136.061 344.138 145.081 340.958C150.531 339.038 155.801 336.618 161.101 334.288C162.671 333.598 164.191 333.208 165.911 333.208C194.661 333.238 220.601 324.718 243.671 307.568C265.181 291.578 280.921 271.108 290.921 246.238C295.561 234.698 298.541 222.718 299.971 210.378C301.051 201.088 301.051 191.768 300.281 182.428C299.401 171.708 297.141 161.288 294.201 150.988C293.761 149.448 293.751 148.268 294.871 146.948C302.541 137.968 309.711 128.608 316.351 118.848C316.621 118.458 316.951 118.098 317.411 117.528C317.881 118.378 318.301 119.008 318.601 119.698C324.861 134.088 329.151 149.038 331.701 164.518C333.731 176.878 334.531 189.328 333.891 201.818C332.331 232.368 324.161 260.988 307.931 287.108C289.951 316.038 265.471 337.668 234.621 352.058C221.831 358.018 208.401 361.938 194.481 364.288C184.471 365.978 174.411 366.918 164.271 366.528C136.981 365.488 111.071 359.268 87.2105 345.558C86.5605 345.188 85.9205 344.788 85.2805 344.398C85.3105 344.288 85.3505 344.198 85.4005 344.108Z" fill="#0E60AA"/>
<path d="M96.4805 24.5682C101.98 22.5082 107.48 20.4282 112.99 18.3982C129.11 12.4682 145.25 6.57823 161.36 0.618229C163.29 -0.0917713 165.05 -0.261771 167.05 0.488229C188.4 8.41823 209.78 16.2682 231.15 24.1482C231.51 24.2782 231.85 24.4782 232.57 24.8282C228.52 26.3182 224.8 27.6982 221.08 29.0682C202.83 35.7682 184.58 42.4382 166.35 49.1882C164.74 49.7882 163.36 49.6882 161.81 49.1082C146.63 43.4682 131.43 37.8682 116.24 32.2682C114.98 31.8082 113.7 31.4082 112.29 30.9282C112.14 31.7682 111.97 32.2382 111.97 32.7082C111.97 38.5082 112 44.3082 112 50.1082C112 51.1382 112.3 51.9082 113.06 52.7082C115.71 55.4882 115.94 58.3982 113.7 61.4182C112.89 62.5082 112.82 63.4382 113.08 64.6782C113.9 68.7182 114.61 72.7782 115.33 76.8382C115.55 78.0782 115.66 79.3382 115.84 80.7982C111.52 80.7982 107.44 80.7982 102.93 80.7982C103.44 78.0782 103.9 75.5282 104.39 72.9782C104.93 70.1882 105.41 67.3782 106.07 64.6182C106.37 63.3382 106.15 62.4182 105.38 61.3582C103.25 58.3982 103.36 55.9382 105.76 53.0982C106.58 52.1282 106.97 51.1582 106.97 49.9182C106.96 43.7282 107.01 37.5282 106.99 31.3382C106.98 28.9982 106.82 28.8382 104.5 27.9782C101.84 26.9982 99.1605 26.0682 96.4905 25.1082C96.4905 24.9182 96.4805 24.7382 96.4805 24.5682Z" fill="#0E60AA"/>
<path d="M130.841 130.078C131.021 114.678 141.251 101.348 155.591 97.3584C173.651 92.3384 191.841 103.298 196.421 121.658C200.031 136.158 194.531 150.448 182.961 158.588C177.691 162.288 171.821 164.058 165.321 164.308C148.441 164.958 134.621 152.508 131.651 137.088C131.201 134.778 131.101 132.408 130.841 130.078Z" fill="#0E60AA"/>
<path d="M283.191 74.2583C278.061 82.4183 272.52 90.1383 266.43 97.6883C265.56 98.7683 263.901 98.8883 262.941 97.8883C262.931 97.8783 262.931 97.8783 262.921 97.8683C249.721 84.0683 234.411 73.2683 216.87 65.6683C214.94 64.8283 214.591 63.8683 214.561 60.9783C214.501 54.9783 214.501 50.9783 214.521 45.8283C214.531 42.5283 215.031 42.1683 218.561 40.8383C223.501 38.9783 224.501 38.9783 228.271 37.2183C230.621 36.1283 232.19 35.8783 234.12 36.7383C242.57 40.5283 250.541 45.1783 258.171 50.3983C266.781 56.2983 274.81 62.9183 282.21 70.2883C282.43 70.5083 282.64 70.7283 282.86 70.9583C283.7 71.8583 283.841 73.2183 283.191 74.2583Z" fill="#0E60AA"/>
<path d="M204.131 42.8281C204.221 43.5681 204.33 44.0381 204.33 44.5181C204.36 49.9181 204.29 55.3281 204.43 60.7181C204.54 65.0881 202.42 67.9281 198.75 69.8981C192.02 73.5081 184.8 75.6681 177.29 76.7581C172.93 77.3881 168.5 77.9281 164.11 77.8481C157.55 77.7181 151.02 76.9881 144.6 75.3581C139.72 74.1281 134.98 72.5781 130.53 70.2581C128.91 69.4081 127.29 68.2981 126.11 66.9381C125.15 65.8381 124.36 64.1881 124.31 62.7581C124.1 56.5781 124.19 50.3881 124.18 44.1981C124.18 43.9181 124.34 43.6481 124.54 42.9881C125.44 43.2281 126.36 43.3981 127.21 43.7181C137.89 47.6281 148.61 51.4581 159.21 55.5681C162.7 56.9181 165.72 57.0781 169.3 55.6581C180.05 51.3881 190.96 47.5181 201.81 43.5081C202.51 43.2481 203.241 43.0881 204.131 42.8281Z" fill="#0E60AA"/>
<path d="M83.6004 45.7281C70.9004 54.1581 60.5304 65.0181 51.8204 77.4281C34.4204 102.208 25.4404 129.898 23.9504 160.038C23.3804 171.558 24.4904 183.008 26.4504 194.358C28.5304 206.408 32.3504 217.958 36.7904 229.308C37.6104 231.398 38.6204 233.408 39.5404 235.458C37.0204 224.778 35.1004 214.108 34.4304 203.178C33.9204 194.898 34.2004 186.668 34.8804 178.438C35.6404 169.208 37.7204 160.198 40.4504 151.378C48.9004 124.148 64.0404 101.648 86.2404 84.2081C89.2004 81.8781 91.1104 78.4681 91.4604 74.7181L94.7004 40.3781C94.7404 39.8981 94.2404 39.5781 93.8204 39.8081C90.3804 41.7381 86.8704 43.5581 83.6004 45.7281Z" fill="#0E60AA"/>
</svg>
